Coordinates
version=1
nRows=34
nColumns=17
inDegrees=yes

Units are S.I. units (second, meters, Newtons, ...)
If the header above contains a line with 'inDegrees', this indicates whether rotational values are in degrees (yes) or radians (no).

endheader
time	pelvis_tilt	pelvis_tx	pelvis_ty	hip_flexion_r	knee_angle_r	ankle_angle_r	mtp_angle_r	hip_flexion_l	knee_angle_l	ankle_angle_l	mtp_angle_l	lumbar_ext	shoulder_flexion_r	elbow_flexion_r	shoulder_flexion_l	elbow_flexion_l
      0.22000000	     12.41849195	      0.17760996	      1.00422951	    -14.05677466	    -48.75924977	    -19.34881234	     -0.00000000	     -3.05911787	     -5.76342457	     -5.75182873	     -0.00000000	    -24.45932630	      5.60038936	     26.81484006	     -5.48915011	     22.91247935
      0.23000000	     12.72295268	      0.18836301	      1.00589746	    -12.72974452	    -51.42295508	    -19.24726194	     -0.00000000	     -4.43648514	     -5.09981480	     -5.38749069	     -0.00000000	    -24.81457408	      5.30693319	     26.54114127	     -4.81638127	     23.22493153
      0.24000000	     12.89339297	      0.19930744	      1.00722777	    -11.30431690	    -53.88130178	    -18.45194546	     -0.00000000	     -5.74918175	     -4.29676409	     -4.96908332	      0.00000000	    -24.98004648	      5.01126575	     26.04012761	     -4.30366477	     23.93124027
      0.25000000	     13.11710012	      0.20974667	      1.00871002	     -9.89269513	    -56.10357439	    -17.78680855	     -0.00000000	     -7.04359761	     -3.58699725	     -4.68348715	      0.00000000	    -25.25738083	      4.74583369	     25.72625682	     -3.62179925	     24.39354790
      0.26000000	     13.21350886	      0.22052259	      1.00988119	     -8.43420510	    -58.07659721	    -16.11167286	     -0.00000000	     -8.32132145	     -2.65867272	     -4.45595787	      0.00000000	    -25.32244092	      4.45242046	     25.30004376	     -3.09362685	     25.15948597
      0.27000000	     13.30628237	      0.23090982	      1.01110771	     -6.97072954	    -59.76235025	    -14.48377730	     -0.00000000	     -9.46781651	     -1.94837817	     -4.31549952	      0.00000000	    -25.45647899	      4.15497607	     25.00946706	     -2.45691148	     25.78467692
      0.28000000	     13.38439643	      0.24148635	      1.01228508	     -5.55235860	    -61.12083517	    -12.99746501	      0.00000000	    -10.65767606	     -1.13155888	     -4.18834668	      0.00000000	    -25.50549707	      3.79816763	     24.77702879	     -1.84530360	     26.36680719
      0.29000000	     13.42235674	      0.25191729	      1.01337393	     -4.12780384	    -62.18528839	    -11.39177892	      0.00000000	    -11.76580578	     -0.36950625	     -4.11156112	      0.00000000	    -25.54259175	      3.43668812	     24.59582224	     -1.21455333	     26.97729640
      0.30000000	     13.41909701	      0.26225870	      1.01432771	     -2.70593194	    -62.96246426	     -9.81501894	      0.00000000	    -12.76462646	      0.29537338	     -4.05775292	      0.00000000	    -25.54021207	      3.05037277	     24.46960764	     -0.59753301	     27.58670239
      0.31000000	     13.35935449	      0.27254064	      1.01514140	     -1.27545115	    -63.43501333	     -8.31574467	      0.00000000	    -13.67961541	      0.91078874	     -3.99528069	      0.00000000	    -25.44110034	      2.65763517	     24.39884149	      0.03914432	     28.21911473
      0.32000000	     13.27824726	      0.28306409	      1.01581130	      0.08902890	    -63.57442836	     -7.11817767	      0.00000000	    -14.61381626	      1.59775529	     -3.88381377	      0.00000000	    -25.26362248	      2.20283214	     24.33351615	      0.62865115	     28.81459155
      0.33000000	     13.10518504	      0.29319907	      1.01621342	      1.52519926	    -63.47712968	     -5.74205040	      0.00000000	    -15.32082507	      2.08532755	     -3.81220981	      0.00000000	    -25.06760251	      1.77964369	     24.35215915	      1.24139395	     29.51940716
      0.34000000	     12.94157496	      0.30353763	      1.01650224	      2.84781127	    -63.03397182	     -4.70483171	      0.00000000	    -16.07666792	      2.63478811	     -3.69483185	      0.00000000	    -24.82204584	      1.32299119	     24.35163778	      1.82085102	     30.17978001
      0.35000000	     12.75557420	      0.31376693	      1.01658870	      4.13051733	    -62.31572893	     -3.77709093	      0.00000000	    -16.77483300	      3.12599878	     -3.55457634	      0.00000000	    -24.55840941	      0.86715896	     24.37571022	      2.40428181	     30.86569635
      0.36000000	     12.49414672	      0.32379422	      1.01639622	      5.42930935	    -61.33201477	     -2.83747176	      0.00000000	    -17.32106503	      3.50940943	     -3.38718378	      0.00000000	    -24.25130601	      0.44355404	     24.46082932	      2.98235392	     31.64612793
      0.37000000	     12.25121298	      0.33395104	      1.01606707	      6.60532350	    -60.03016713	     -2.15480591	      0.00000000	    -17.90925435	      3.92027226	     -3.16469524	      0.00000000	    -23.93366569	      0.00252236	     24.50273537	      3.54496154	     32.36155657
      0.38000000	     12.04146177	      0.34404002	      1.01561365	      7.65053366	    -58.43502631	     -1.56846714	      0.00000000	    -18.52922279	      4.33864294	     -2.95451780	      0.00000000	    -23.65975889	     -0.40036343	     24.51981879	      4.11190984	     33.07402798
      0.39000000	     11.88875824	      0.35368944	      1.01523241	      8.55833487	    -56.50403116	     -1.36083329	      0.00000000	    -19.08175958	      4.54165571	     -2.78534747	      0.00000000	    -23.49885043	     -0.69875633	     24.48838271	      4.81730593	     33.50451183
      0.40000000	     11.59793121	      0.36404062	      1.01421955	      9.45933867	    -54.35241401	     -0.56139894	      0.00000000	    -19.63082861	      4.95690235	     -2.47228207	      0.00000000	    -23.12441065	     -1.15169109	     24.58065898	      5.19105199	     34.60085982
      0.41000000	     11.38464873	      0.37392720	      1.01340138	     10.19209954	    -51.84305932	     -0.39668917	      0.00000000	    -20.12868845	      5.14963591	     -2.25403042	      0.00000000	    -22.85814723	     -1.47491458	     24.54974465	      5.79017990	     35.07859367
      0.42000000	     11.17278790	      0.38392414	      1.01233232	     10.80470446	    -49.10242703	      0.10333215	      0.00000000	    -20.67092365	      5.42383850	     -1.88481395	      0.00000000	    -22.65564657	     -1.79920183	     24.58953793	      6.21970492	     36.11454807
      0.43000000	     10.91352245	      0.39382508	      1.01121080	     11.35251218	    -46.05027411	      0.19187007	      0.00000000	    -21.09181074	      5.57022665	     -1.66112024	      0.00000000	    -22.36626998	     -2.08952729	     24.54462998	      6.77663702	     36.56465535
      0.44000000	     10.84110534	      0.40380774	      1.01022628	     11.54343982	    -42.71417080	      0.44612025	      0.00000000	    -21.72458849	      5.72204561	     -1.27195488	      0.00000000	    -22.32527136	     -2.33615354	     24.51843522	      7.18789685	     37.56025836
      0.45000000	     10.53867729	      0.41382727	      1.00887376	     11.88510609	    -39.17035003	      0.48860372	      0.00000000	    -22.07047591	      5.80412884	     -1.04457639	      0.00000000	    -21.98560040	     -2.60241247	     24.45814623	      7.67350620	     37.99202162
      0.46000000	     10.58181606	      0.42384143	      1.00796528	     11.67122333	    -35.31861952	      0.47481134	      0.00000000	    -22.75727871	      5.80742851	     -0.58653585	      0.00000000	    -22.08698388	     -2.76283922	     24.31906651	      8.05848210	     38.93037512
      0.47000000	     10.24383959	      0.43404827	      1.00639385	     11.79614884	    -31.39831639	      0.49955471	      0.00000000	    -23.02761594	      5.80686409	     -0.38397206	      0.00000000	    -21.70513243	     -3.01846717	     24.26927468	      8.46180923	     39.33079663
      0.48000000	     10.47291413	      0.44421105	      1.00570691	     11.09432889	    -27.15054848	      0.16923071	      0.00000000	    -23.86993778	      5.70012250	      0.01200586	      0.00000000	    -22.01061419	     -3.13614181	     24.13888751	      8.82438510	     40.17094136
      0.49000000	     10.08616258	      0.45470897	      1.00386008	     11.06144450	    -23.08895483	      0.22090907	      0.00000000	    -24.04928826	      5.59884155	      0.23079261	      0.00000000	    -21.56442270	     -3.37553159	     24.06570639	      9.11957863	     40.55117326
      0.50000000	     10.49692519	      0.46526635	      1.00330872	      9.92407918	    -18.72103495	     -0.42630744	      0.00000000	    -25.06896559	      5.40317664	      0.57196020	      0.00000000	    -22.03724296	     -3.48591827	     23.92585214	      9.38886508	     41.34437835
      0.51000000	     10.11892932	      0.47629448	      1.00129721	      9.72335189	    -14.81726063	     -0.41988847	      0.00000000	    -25.20893938	      5.11611510	      0.86793773	      0.00000000	    -21.53136936	     -3.74698178	     23.80138611	      9.54268784	     41.71458669
      0.52000000	     10.00047230	      0.48741396	      0.99966389	      9.16631408	    -11.01702567	     -0.95159584	      0.00000000	    -25.60730555	      4.75235806	      1.42549003	      0.00000000	    -21.32876785	     -3.94036487	     23.58214415	      9.64633011	     42.21809465
      0.53000000	     10.39702863	      0.49837126	      0.99888265	      7.99295120	     -7.37910058	     -2.00774207	      0.00000000	    -26.51460466	      4.29904819	      1.89626109	      0.00000000	    -21.77161655	     -4.00363896	     23.42759916	      9.79278518	     42.90940526
      0.54000000	     10.39631541	      0.50973628	      0.99735202	      7.36182623	     -4.37265316	     -2.53630979	      0.00000000	    -27.00226084	      3.82452795	      2.32995958	      0.00000000	    -21.68769111	     -4.15295816	     23.23843026	      9.81790636	     43.37889477
      0.55000000	     10.41624636	      0.52123064	      0.99589576	      6.75275519	     -1.84255984	     -3.04320258	      0.00000000	    -27.47619902	      3.25603646	      2.72198447	      0.00000000	    -21.63957373	     -4.28804110	     23.04470292	      9.80463558	     43.81471319
